<svg width="84" height="64" viewBox="0 0 84 64" fill="none" xmlns="http://www.w3.org/2000/svg">
<g filter="url(#filter0_i_283_33)">
<rect width="82.3982" height="63.1719" rx="18" transform="matrix(-1 0 0 1 83.0254 0.332538)" fill="#E6E5E5"/>
</g>
<path d="M32.3333 22.4444H49.6667M35.2222 22.4444C36.3603 22.4444 37.4873 22.6686 38.5388 23.1042C39.5903 23.5397 40.5457 24.1781 41.3505 24.9829C42.1553 25.7876 42.7936 26.743 43.2292 27.7945C43.6647 28.846 43.8889 29.973 43.8889 31.1111C43.8889 32.2492 43.6647 33.3762 43.2292 34.4277C42.7936 35.4792 42.1553 36.4346 41.3505 37.2394C40.5457 38.0441 39.5903 38.6825 38.5388 39.1181C37.4873 39.5536 36.3603 39.7778 35.2222 39.7778H32.3333L41 48.4444M32.3333 31.1111H49.6667M67 34C67 37.4144 66.3275 40.7953 65.0209 43.9498C63.7142 47.1042 61.7991 49.9705 59.3848 52.3848C56.9705 54.7991 54.1042 56.7142 50.9498 58.0209C47.7953 59.3275 44.4144 60 41 60C37.5856 60 34.2047 59.3275 31.0502 58.0209C27.8958 56.7142 25.0295 54.7991 22.6152 52.3848C20.2009 49.9705 18.2858 47.1042 16.9791 43.9498C15.6725 40.7953 15 37.4144 15 34C15 27.1044 17.7393 20.4912 22.6152 15.6152C27.4912 10.7393 34.1044 8 41 8C47.8956 8 54.5088 10.7393 59.3848 15.6152C64.2607 20.4912 67 27.1044 67 34Z" stroke="#23557F" stroke-width="3" stroke-linecap="round" stroke-linejoin="round"/>
<defs>
<filter id="filter0_i_283_33" x="0.627441" y="0.332538" width="82.3979" height="67.1719" filterUnits="userSpaceOnUse" color-interpolation-filters="sRGB">
<feFlood flood-opacity="0" result="BackgroundImageFix"/>
<feBlend mode="normal" in="SourceGraphic" in2="BackgroundImageFix" result="shape"/>
<feColorMatrix in="SourceAlpha" type="matrix" values="0 0 0 0 0 0 0 0 0 0 0 0 0 0 0 0 0 0 127 0" result="hardAlpha"/>
<feOffset dy="4"/>
<feGaussianBlur stdDeviation="2"/>
<feComposite in2="hardAlpha" operator="arithmetic" k2="-1" k3="1"/>
<feColorMatrix type="matrix" values="0 0 0 0 0 0 0 0 0 0 0 0 0 0 0 0 0 0 0.25 0"/>
<feBlend mode="normal" in2="shape" result="effect1_innerShadow_283_33"/>
</filter>
</defs>
</svg>
